<svg width="25" height="22" viewBox="0 0 25 22" fill="none" xmlns="http://www.w3.org/2000/svg">
<path d="M23.5285 9.40649C22.5223 8.26829 21.4344 7.23071 20.2459 6.31889L17.2338 9.32474C17.4161 9.85297 17.5105 10.4189 17.5105 11.01C17.5105 13.8838 15.1838 16.2105 12.31 16.2105C11.7189 16.2105 11.1529 16.1099 10.6247 15.9338L8.48034 18.0782C9.64998 18.5247 10.8699 18.7888 12.1653 18.8076C13.9261 18.8328 15.5799 18.3989 17.1583 17.6317C19.2524 16.613 21.0445 15.1792 22.667 13.5254C23.0002 13.1858 23.3272 12.8211 23.6542 12.4689C23.9749 12.1231 24.2705 11.7583 24.3963 11.2867V10.7208C24.2768 10.1863 23.8806 9.80266 23.5285 9.40649ZM7.11576 11.01C7.11576 8.13623 9.44247 5.80953 12.3163 5.80953C14.0393 5.80953 15.5674 6.64589 16.5106 7.93501L19.0071 5.43851C18.6487 5.20584 18.2839 4.98575 17.9129 4.77823C16.4352 3.96074 14.8693 3.39479 13.1778 3.23758C11.7063 3.10552 10.2788 3.31933 8.88909 3.80353C6.64413 4.58958 4.70731 5.89128 2.978 7.50111C2.21082 8.21798 1.52538 9.01032 0.78964 9.77122C0.525528 10.0416 0.380895 10.3623 0.255127 10.7208V11.2867C0.380895 11.8653 0.808505 12.274 1.1921 12.6953C2.78935 14.4686 4.56268 16.0282 6.65671 17.1978C6.78248 17.267 6.90825 17.3362 7.0403 17.4053L9.24753 15.1981C7.95212 14.2674 7.11576 12.7393 7.11576 11.01Z" fill="#E4E7EE"/>
<path d="M15.4415 9.00402L10.3039 14.1416C9.27888 13.4814 8.59345 12.3243 8.58716 11.0163C8.58716 8.97258 10.2536 7.29358 12.3036 7.29358C13.6179 7.29358 14.7812 7.97901 15.4415 9.00402Z" fill="#E4E7EE"/>
<path d="M16.0329 11.0101C16.0329 13.0601 14.3665 14.7328 12.3165 14.7328C12.1593 14.7328 12.0083 14.7202 11.8574 14.7014L16.0078 10.551C16.0266 10.7019 16.0329 10.8529 16.0329 11.0101Z" fill="#E4E7EE"/>
<path d="M2.75821 20.8388C2.46894 20.5496 2.46894 20.0716 2.75821 19.7824L21.3593 1.1813C21.6485 0.892039 22.1265 0.892039 22.4157 1.1813C22.705 1.47057 22.705 1.94849 22.4157 2.23775L3.81466 20.8388C3.5191 21.1281 3.04748 21.1281 2.75821 20.8388Z" fill="#E4E7EE"/>
</svg>
