<svg width="21" height="21" viewBox="0 0 21 21" fill="none" xmlns="http://www.w3.org/2000/svg">
<path d="M20.2031 8.27213V10.7721C20.151 10.9128 20.1667 11.0534 20.151 11.194C19.9115 13.3451 19.0885 15.2461 17.6354 16.8555C17.5052 17.0013 17.3698 17.1419 17.2292 17.2826C17.1823 17.3294 17.1354 17.3763 17.0885 17.418C16.3854 18.1003 15.6094 18.6628 14.7656 19.0898L14.7604 19.0951C14.7604 19.0951 14.7604 19.0951 14.7552 19.0951V19.1055C14.3073 19.3086 13.8438 19.5169 13.3594 19.6784C13.349 19.6836 13.3438 19.6836 13.3333 19.6888C12.8802 19.8346 12.4062 19.9544 11.9167 20.043C11.5417 20.1107 11.1615 20.1471 10.7812 20.1992H9.60938C9.55729 20.1992 9.51042 20.1628 9.45833 20.1628C7.89583 20.0534 6.43229 19.6003 5.09375 18.7826C3.51042 17.8138 2.30208 16.5794 1.46875 15.0898C0.9375 14.1367 0.572917 13.0794 0.354167 11.9128C0.28125 11.5326 0.255208 11.1523 0.203125 10.7721V9.60026C0.203125 9.45963 0.229167 9.31901 0.244792 9.17838C0.401042 7.7513 0.828125 6.43359 1.50521 5.23568C1.86979 4.63151 2.26562 4.05859 2.75 3.52214C4.29167 1.8138 6.19792 0.751302 8.46875 0.35026C8.84375 0.282552 9.22396 0.251302 9.60417 0.199219H10.6979C10.776 0.199219 10.849 0.214844 10.9271 0.22526C11.2448 0.261719 11.5625 0.282552 11.875 0.334635C13.1875 0.553385 14.4062 1.02214 15.526 1.73568C15.7812 1.89714 16.026 2.07943 16.2865 2.25651C15.5052 3.27214 14.7344 4.27214 13.9687 5.26693C12.7448 4.34505 11.349 3.95443 9.99479 4.00651C9.92708 4.00651 9.85417 4.01172 9.78646 4.01693C9.78125 4.01693 9.77604 4.01693 9.77083 4.01693C9.55729 4.03255 9.34375 4.05859 9.13542 4.09505C9.10417 4.10026 9.07292 4.10547 9.04167 4.11068C9.00521 4.11589 8.97396 4.1263 8.9375 4.13151C8.89583 4.14193 8.85937 4.14714 8.81771 4.15755C8.77083 4.16797 8.72917 4.17839 8.68229 4.1888C8.59375 4.20964 8.50521 4.23568 8.41667 4.26172C8.38542 4.27214 8.34896 4.27214 8.31771 4.28255C8.1875 4.32422 8.05729 4.36068 7.93229 4.41276C7.86979 4.46484 7.80729 4.47005 7.74479 4.49609C7.71354 4.51172 7.68229 4.52734 7.65104 4.53776C7.56771 4.57422 7.48438 4.61589 7.40625 4.65755C7.36979 4.67318 7.33333 4.69401 7.30208 4.70964C7.27083 4.72526 7.23437 4.74609 7.20312 4.76172C6.71354 5.02734 6.26562 5.36068 5.86979 5.7513C5.44271 6.17318 5.08333 6.64714 4.79687 7.16276C3.80729 8.93359 3.69271 11.1367 4.72917 13.0898C4.73958 13.1055 4.75 13.1263 4.75521 13.1419C5.76562 14.9961 7.64062 16.2148 9.76562 16.3555C9.77083 16.3555 9.77604 16.3555 9.78125 16.3555C9.84896 16.3607 9.92187 16.3659 9.98958 16.3659C9.99479 16.3659 10 16.3659 10.0052 16.3659C10.4896 16.3815 10.9844 16.3346 11.4844 16.2305C11.9688 16.1315 12.4219 15.9648 12.8385 15.7669C12.8385 15.7669 12.8385 15.7669 12.8438 15.7669C13.2396 15.5794 13.6042 15.3503 13.9375 15.0898C13.9844 15.0534 14.0312 15.0169 14.0781 14.9805C14.1406 14.9284 14.2031 14.8763 14.2604 14.8242C14.3594 14.7409 14.4531 14.6523 14.5417 14.5638C14.5573 14.5482 14.5729 14.5326 14.5885 14.5169C14.6198 14.4857 14.651 14.4492 14.6823 14.418C14.724 14.3763 14.7656 14.3294 14.8021 14.2878C14.8229 14.2617 14.8438 14.2409 14.8646 14.2148C14.9062 14.168 14.9427 14.1211 14.9844 14.0742C15.0625 13.9805 15.1354 13.8815 15.2083 13.7878C15.224 13.7669 15.2396 13.7461 15.2552 13.7253C15.2969 13.6628 15.3438 13.6003 15.3854 13.5378C15.3854 13.5378 15.3854 13.5326 15.3906 13.5326C15.4062 13.5117 15.4167 13.4909 15.4323 13.4701C15.4479 13.444 15.4687 13.4128 15.4844 13.3867C15.5 13.3607 15.5104 13.3398 15.526 13.3138C15.5625 13.2565 15.5938 13.1992 15.625 13.1419C15.6354 13.1211 15.6458 13.1003 15.6562 13.0846C15.6771 13.043 15.7031 13.0013 15.724 12.9544C15.7344 12.9336 15.7448 12.9128 15.7552 12.8919C15.7656 12.8711 15.776 12.8503 15.7865 12.8294C15.8073 12.7878 15.8229 12.7461 15.8437 12.6992C15.8542 12.6784 15.8594 12.6576 15.8698 12.6367C15.8854 12.5951 15.9062 12.5534 15.9219 12.5117C15.9375 12.4753 15.9479 12.4388 15.9635 12.4023C15.9792 12.3659 15.9896 12.3294 16 12.293C16.026 12.2201 16.0469 12.1471 16.0625 12.0794H10.2031V8.27734H19.9375C20.0208 8.27214 20.099 8.27213 20.2031 8.27213Z" fill="#FFD500"/>
<path d="M16.2864 2.25651C15.5051 3.27214 14.7343 4.27214 13.9687 5.26693C12.7447 4.34505 11.3489 3.95443 9.99471 4.00651C9.927 4.00651 9.85409 4.01172 9.78638 4.01693V0.199219H10.6978C10.776 0.199219 10.8489 0.214844 10.927 0.22526C11.2447 0.261719 11.5624 0.282552 11.8749 0.334635C13.1874 0.553385 14.4062 1.02214 15.526 1.73568C15.7864 1.89714 16.0312 2.07943 16.2864 2.25651Z" fill="#D93F21"/>
<path d="M20.2032 8.27209V10.7721C20.1511 10.9127 20.1667 11.0533 20.1511 11.194C19.9115 13.345 19.0886 15.2461 17.6355 16.8554C17.5053 17.0013 17.3699 17.1419 17.2292 17.2825C17.1824 17.3294 17.1355 17.3763 17.0886 17.4179C16.3803 18.095 15.6042 18.6523 14.7605 19.0846H14.7553L14.7605 19.0898C14.7605 19.0898 14.7605 19.0898 14.7553 19.0898V19.1002C14.3074 19.3033 13.8438 19.5117 13.3595 19.6731H9.99487V16.3658C10.0001 16.3658 10.0053 16.3658 10.0105 16.3658C10.4949 16.3815 10.9897 16.3346 11.4897 16.2304C11.974 16.1315 12.4272 15.9648 12.8438 15.7669C12.8438 15.7669 12.8438 15.7669 12.849 15.7669C13.3022 15.5481 13.7136 15.2825 14.0834 14.9804C14.1459 14.9283 14.2084 14.8763 14.2657 14.8242C14.3647 14.7408 14.4584 14.6523 14.547 14.5638C14.5626 14.5481 14.5782 14.5325 14.5938 14.5169C14.6251 14.4856 14.6563 14.4492 14.6876 14.4179C14.7292 14.3763 14.7709 14.3294 14.8074 14.2877C14.8282 14.2617 14.849 14.2408 14.8699 14.2148C14.9115 14.1679 14.948 14.1211 14.9897 14.0742C15.0678 13.9804 15.1407 13.8815 15.2136 13.7877C15.2292 13.7669 15.2449 13.7461 15.2605 13.7252C15.3022 13.6627 15.349 13.6002 15.3907 13.5377C15.3907 13.5377 15.3907 13.5325 15.3959 13.5325C15.4115 13.5117 15.422 13.4908 15.4376 13.47C15.4532 13.444 15.474 13.4127 15.4897 13.3867C15.5053 13.3606 15.5157 13.3398 15.5313 13.3138C15.5678 13.2565 15.599 13.1992 15.6303 13.1419C15.6407 13.1211 15.6511 13.1002 15.6615 13.0846C15.6824 13.0429 15.7084 13.0013 15.7292 12.9544C15.7397 12.9336 15.7501 12.9127 15.7605 12.8919C15.7709 12.8711 15.7813 12.8502 15.7917 12.8294C15.8126 12.7877 15.8282 12.7461 15.849 12.6992C15.8595 12.6783 15.8647 12.6575 15.8751 12.6367C15.8907 12.595 15.9115 12.5533 15.9272 12.5117C15.9428 12.4752 15.9532 12.4388 15.9688 12.4023C15.9845 12.3658 15.9949 12.3294 16.0053 12.2929C16.0313 12.22 16.0522 12.1471 16.0678 12.0794H10.2032V8.2773H19.9376C20.0209 8.2721 20.099 8.27209 20.2032 8.27209Z" fill="#167EE6"/>
<path d="M14.7657 19.0898L14.7605 19.095C14.7605 19.095 14.7605 19.095 14.7553 19.095V19.1054C14.3074 19.3086 13.8438 19.5169 13.3595 19.6783C13.349 19.6836 13.3438 19.6836 13.3334 19.6888C12.8803 19.8346 12.4063 19.9544 11.9167 20.0429C11.5417 20.1106 11.1615 20.1471 10.7813 20.1992H9.79175V16.3606C9.85946 16.3658 9.93237 16.3711 10.0001 16.3711C10.0053 16.3711 10.0105 16.3711 10.0157 16.3711C10.5001 16.3867 10.9949 16.3398 11.4949 16.2356C11.9792 16.1367 12.4324 15.97 12.849 15.7721C12.849 15.7721 12.849 15.7721 12.8542 15.7721H12.8647L14.7657 19.0846V19.0898Z" fill="#0F993E"/>
<path d="M9.99487 16.3711V20.1992H9.60425C9.55217 20.1992 9.50529 20.1627 9.45321 20.1627C7.89071 20.0533 6.42717 19.6002 5.08862 18.7825C3.50529 17.8138 2.29696 16.5794 1.46362 15.0898L4.75529 13.1471C5.76571 15.0013 7.64071 16.22 9.76571 16.3606C9.77092 16.3606 9.77612 16.3606 9.78133 16.3606C9.85425 16.3658 9.92717 16.3658 9.99487 16.3711Z" fill="#12B347"/>
<path d="M9.99471 0.199219V4.00651C9.927 4.00651 9.85408 4.01172 9.78638 4.01693C9.53117 4.03255 9.28638 4.06901 9.04158 4.11589C9.00513 4.12109 8.97388 4.13151 8.93742 4.13672C8.89575 4.14714 8.85929 4.15234 8.81763 4.16276C8.77075 4.17318 8.72909 4.18359 8.68221 4.19401C8.59367 4.21484 8.50513 4.24089 8.41658 4.26693C8.38533 4.27734 8.34888 4.27734 8.31763 4.28776C8.18742 4.32943 8.05721 4.36589 7.93221 4.41797C7.86971 4.47005 7.80721 4.47526 7.74471 4.5013C7.71346 4.51693 7.68221 4.53255 7.65096 4.54297C7.56763 4.57943 7.48429 4.62109 7.40617 4.66276C7.36971 4.67839 7.33325 4.69922 7.302 4.71484C7.27075 4.73047 7.23429 4.7513 7.20304 4.76693C6.71867 5.03255 6.27075 5.36589 5.88013 5.75651C5.45304 6.17839 5.08846 6.65755 4.802 7.16797H4.79679L1.50513 5.23568C1.86971 4.63151 2.26554 4.05859 2.74992 3.52214C4.29159 1.8138 6.19783 0.751302 8.46867 0.35026C8.84367 0.282552 9.22388 0.251302 9.60408 0.199219H9.99471V0.199219Z" fill="#FF4B26"/>
</svg>
