<svg width="15" height="19" viewBox="0 0 15 19" fill="none" xmlns="http://www.w3.org/2000/svg">
<path d="M7.20317 9.43047C9.19821 9.43047 10.8157 7.46598 10.8157 5.04265C10.8157 2.61927 10.2846 0.654785 7.20317 0.654785C4.12171 0.654785 3.59058 2.61927 3.59058 5.04265C3.59058 7.46598 5.20803 9.43047 7.20317 9.43047Z" fill="#F4F5F9"/>
<path d="M0.379861 16.1301C0.379246 15.9824 0.37863 16.0885 0.379861 16.1301V16.1301Z" fill="#F4F5F9"/>
<path d="M14.0261 16.2464C14.0281 16.2057 14.0268 15.9642 14.0261 16.2464V16.2464Z" fill="#F4F5F9"/>
<path d="M14.0183 15.9529C13.9514 11.7314 13.4 10.5285 9.18106 9.76709C9.18106 9.76709 8.58717 10.5239 7.20294 10.5239C5.8187 10.5239 5.22471 9.76709 5.22471 9.76709C1.05176 10.5202 0.466897 11.7053 0.389995 15.8158C0.383689 16.1514 0.380767 16.1691 0.379639 16.1301C0.379895 16.2031 0.380203 16.3381 0.380203 16.5736C0.380203 16.5736 1.38464 18.5985 7.20294 18.5985C13.0211 18.5985 14.0257 16.5736 14.0257 16.5736C14.0257 16.4223 14.0258 16.3171 14.0259 16.2456C14.0248 16.2697 14.0225 16.2229 14.0183 15.9529Z" fill="#F4F5F9"/>
</svg>
